<?xml version="1.0" standalone="no"?>
<!DOCTYPE svg PUBLIC "-//W3C//DTD SVG 20010904//EN"
 "http://www.w3.org/TR/2001/REC-SVG-20010904/DTD/svg10.dtd">
<svg version="1.0" xmlns="http://www.w3.org/2000/svg"
 width="1182.000000pt" height="1182.000000pt" viewBox="0 0 1182.000000 1182.000000"
 preserveAspectRatio="xMidYMid meet">

<g transform="translate(0.000000,1182.000000) scale(0.100000,-0.100000)"
fill="#000000" stroke="none">
<path d="M6280 11582 c-30 -43 -102 -138 -161 -212 -58 -74 -301 -385 -539
-690 -893 -1143 -923 -1181 -931 -1168 -4 7 -22 66 -40 132 -19 68 -39 121
-47 124 -8 3 -112 -12 -231 -33 -256 -45 -496 -120 -591 -186 -31 -21 -78 -46
-105 -55 -114 -39 -215 -130 -267 -242 -32 -71 -38 -94 -38 -151 0 -103 67
-306 138 -421 41 -66 110 -140 131 -140 8 0 24 -8 35 -19 12 -10 51 -26 89
-36 60 -16 66 -20 54 -34 -8 -9 -187 -232 -398 -496 -684 -853 -1482 -1850
-1490 -1860 -4 -6 7 -27 25 -49 l34 -38 336 149 c255 112 336 152 336 165 0
10 25 52 55 94 l55 77 478 279 c262 153 486 289 497 301 14 15 25 51 34 103
l13 80 402 247 c222 136 406 247 410 247 3 0 6 -7 6 -16 0 -13 9 -15 58 -10
31 3 140 11 242 16 102 6 262 14 355 20 94 5 253 14 355 20 102 6 259 15 350
20 396 23 581 32 584 29 2 -2 53 -79 115 -171 l111 -168 0 -277 0 -278 728
-781 c400 -430 775 -833 835 -896 l107 -116 30 -141 c17 -77 30 -151 31 -163
0 -18 132 -132 576 -498 316 -261 577 -480 580 -487 8 -21 -18 -151 -33 -164
-18 -15 -18 -29 1 -29 8 0 173 -117 367 -259 l353 -260 33 31 c17 18 32 37 32
44 0 7 -296 601 -658 1321 -400 794 -908 1824 -1292 2621 -494 1024 -637 1312
-651 1312 -10 0 -305 259 -655 576 l-637 577 -331 69 c-182 38 -332 71 -333
71 -1 1 35 139 79 307 49 185 86 310 96 318 9 6 26 12 38 12 13 0 25 8 28 18
6 20 136 637 136 645 0 2 9 7 20 10 11 3 20 12 20 20 0 8 8 17 18 19 15 4 20
29 35 189 9 101 24 222 33 267 9 46 14 85 12 87 -2 2 -28 -31 -58 -73z m-96
-343 c-9 -48 -24 -93 -34 -104 -10 -11 -21 -34 -24 -51 -4 -19 -72 -111 -176
-240 l-169 -209 -1 -57 0 -56 -265 -419 c-146 -230 -274 -425 -285 -435 -26
-22 -28 -78 -2 -78 10 0 130 23 267 50 137 28 263 50 279 50 17 0 176 -32 354
-72 236 -52 326 -69 331 -60 4 8 233 -192 637 -558 l631 -570 491 -1018 c270
-559 560 -1161 645 -1337 85 -176 342 -698 572 -1160 469 -944 709 -1433 700
-1423 -4 3 -451 831 -994 1840 l-988 1833 -305 17 c-168 9 -314 18 -324 20
-10 2 86 18 214 37 128 19 232 37 232 40 0 3 -55 88 -121 188 -119 178 -123
183 -168 196 -539 159 -672 202 -645 208 16 4 153 12 304 19 151 7 291 15 311
19 l36 6 -596 553 c-343 318 -597 546 -599 538 -2 -7 11 -171 27 -363 17 -193
31 -363 31 -379 -1 -16 -77 180 -171 436 -94 256 -174 468 -177 471 -4 4 -189
21 -412 38 -223 18 -427 34 -455 37 l-50 5 97 -53 c54 -30 100 -57 103 -59 7
-8 -402 -652 -423 -665 -9 -6 -179 -35 -378 -64 l-361 -53 -388 -409 -388
-408 -142 0 -143 0 -281 -443 c-154 -244 -291 -452 -303 -464 -13 -11 -140
-109 -283 -218 -143 -109 -266 -203 -274 -209 -12 -9 -13 -8 -6 4 20 34 1790
2237 1815 2260 15 14 94 119 176 235 l149 209 52 256 c28 140 50 257 47 259
-2 2 -98 -37 -213 -87 -115 -51 -217 -92 -225 -92 -30 0 -86 -34 -86 -52 0
-10 -7 -18 -16 -18 -9 0 -18 -9 -21 -20 -3 -11 -12 -20 -19 -20 -10 0 -14 -12
-14 -38 0 -30 -7 -45 -35 -72 -34 -33 -35 -36 -35 -112 0 -63 3 -78 15 -78 11
0 15 -11 15 -40 0 -33 3 -40 20 -40 12 0 20 -7 20 -17 0 -22 29 -53 50 -53 9
0 25 -9 35 -19 9 -11 33 -21 52 -23 l35 -3 -42 -52 c-28 -35 -49 -53 -64 -53
-37 0 -143 40 -162 61 -9 10 -24 19 -32 19 -23 0 -52 30 -52 55 0 12 -14 34
-31 51 -17 16 -40 47 -52 69 -31 62 -78 218 -67 229 5 5 1 24 -11 47 -27 54
-24 90 11 134 17 21 30 43 30 50 0 24 41 65 65 65 16 0 34 13 52 35 56 71 145
118 363 194 160 55 245 78 390 105 101 20 185 34 185 33 1 -1 25 -74 53 -162
28 -88 58 -169 66 -180 14 -19 14 -19 35 5 11 14 359 465 772 1003 414 538
753 976 755 974 2 -2 -3 -41 -12 -88z"/>
<path d="M3018 3125 c-498 -84 -838 -500 -908 -1110 -13 -117 -13 -397 0 -505
73 -584 368 -946 846 -1035 116 -22 341 -22 457 -1 221 42 494 170 553 262 19
28 25 137 11 187 -11 41 -51 36 -128 -16 -242 -164 -400 -219 -629 -219 -243
1 -414 63 -562 207 -148 144 -244 363 -278 638 -18 144 -8 494 18 615 73 336
224 564 452 681 129 67 173 76 365 76 132 0 184 -4 234 -18 107 -29 219 -84
336 -162 122 -82 153 -91 175 -49 22 40 18 153 -6 195 -39 67 -226 172 -394
220 -168 49 -378 62 -542 34z"/>
<path d="M4455 3101 c-23 -10 -46 -29 -53 -45 -15 -34 -18 -2469 -2 -2510 5
-14 24 -35 42 -46 32 -19 51 -20 675 -20 l642 0 20 26 c26 34 30 137 5 172
l-15 22 -565 0 -564 0 0 525 0 525 471 0 c300 0 477 4 489 10 42 23 48 152 8
192 -17 17 -44 18 -493 18 l-475 0 0 460 0 460 549 0 550 0 20 26 c16 21 21
41 21 91 0 55 -4 67 -25 88 l-24 25 -618 0 c-577 0 -621 -2 -658 -19z"/>
<path d="M6013 3110 c-46 -19 -55 -158 -12 -201 18 -18 37 -19 419 -19 l400 0
0 -1194 c0 -1098 1 -1195 17 -1207 11 -10 45 -14 108 -14 63 0 97 4 108 14 16
12 17 109 17 1207 l0 1194 399 0 c459 0 440 -4 448 87 7 66 -12 121 -44 134
-31 12 -1830 11 -1860 -1z"/>
<path d="M8311 3107 c-19 -7 -44 -25 -55 -40 l-21 -28 0 -1238 c0 -1040 2
-1242 14 -1264 31 -58 21 -57 711 -57 408 0 638 4 650 10 27 14 44 79 36 133
-12 82 27 77 -602 79 l-559 3 -3 523 -2 522 475 0 476 0 26 26 c23 23 25 31
21 91 -7 110 30 103 -524 103 l-474 0 0 460 0 460 550 0 c530 0 551 1 569 19
44 44 35 177 -14 199 -37 17 -1226 16 -1274 -1z"/>
</g>
</svg>
