<svg id="Camada_1" data-name="Camada 1" xmlns="http://www.w3.org/2000/svg" viewBox="0 0 982.8 243.81"><path d="M281,1096.09c8,2.49,15.74,5.41,21.73,11.8,7.26,7.74,11.27,16.68,11.27,27.34q0,82.79,0,165.58a38.74,38.74,0,0,1-32,38.2c-.35.06-.63.59-.94.9h-180c-.28-1.32-1.5-1.09-2.37-1.36q-20.61-6.66-27.26-27.25c-.28-.86,0-2.08-1.36-2.37V1127.07c1.64-.53,1.33-2.18,1.69-3.3,2.35-7.49,6.75-13.5,12.56-18.68,5.15-4.58,11.62-6.41,17.74-9Zm-45.42,204.25c-5.06-1.1-9.5-.69-13.84-.48-4,.19-5-1-5-5,.17-28.14.09-56.27.09-84.41q0-36.21,0-72.42c0-1.34.78-3.26-1.4-3.71-1.52-.31-1.91,1.14-2.3,2.17-3.59,9.47-10.86,15.83-18.69,21.53a114.71,114.71,0,0,1-43.75,19.71c-1,.21-2.77-.2-2.51,1.59s1.89.87,2.86.8c4.65-.3,9.29-.68,13.92-1.2,2.43-.27,3.59.13,3.59,3q-.14,56.94,0,113.88c0,2.72-.93,3.39-3.45,3.28-3.82-.18-7.66-.05-11.49,0-1,0-2.29,0-2.26,1.29,0,1.15,1.2,1.41,2.28,1.39.83,0,1.67,0,2.5,0q37,0,74,0C231.69,1301.75,233.43,1302.38,235.61,1300.34Z" transform="translate(-70.07 -1096.09)" style="fill:#0f1425"/><path d="M757.1,1228.91c0-17.65.12-35.3-.09-53,0-4,1.23-5.19,5.15-5,7,.29,14,.06,21,.08,14.1,0,23.83,7.91,26.49,22.16,2,10.55,1.34,20.92-5.36,30-2.3,3.13-5.1,6-8.74,7.22-3.46,1.21-3,3-2.06,5.55,5.47,15.14,10.91,30.28,16.14,45.5.5,1.47,3.57,4.31-.36,5.08-2.85.56-6.67,1.75-8.22-3-3.22-9.94-6.75-19.79-10.16-29.67-2-6-4.21-11.89-6.14-17.89-.77-2.42-2-3.39-4.6-3.2-4.46.34-10.29-1.34-13,.9-2.92,2.38-.87,8.43-.92,12.86-.13,12-.18,24,0,36,.07,3.65-1.19,4.4-4.56,4.4s-4.65-1-4.62-4.55C757.18,1264.55,757.1,1246.73,757.1,1228.91Zm9-27.4c0,6.48.14,13-.06,19.44-.1,3.12.6,4.55,4.08,4.27,3.79-.3,7.64,0,11.46-.07,10.67-.05,17.34-5.66,19.28-16.24a37.6,37.6,0,0,0-.07-13.87c-2-10.53-8.71-16-19.53-16-3.66,0-7.33.21-11-.07-3.24-.24-4.41.73-4.27,4.11C766.31,1189.21,766.13,1195.37,766.13,1201.51Z" transform="translate(-70.07 -1096.09)" style="fill:#080808"/><path d="M541.79,1228.86c0-10.65,0-21.31,0-32,.09-15.75,10.18-26.51,25.25-27.05,16.91-.61,28.34,8.9,29,25.22q1.45,34.41,0,68.85c-.64,14.76-12.45,24.51-28.12,24.12-15-.37-25.75-10.63-26.09-25.22C541.59,1251.5,541.8,1240.18,541.79,1228.86Zm9.06.14c0,10.82-.08,21.64,0,32.45.1,10.63,7.08,18.16,16.91,18.5,10.9.38,18.81-6.17,19.24-17.11.86-22.28.81-44.58,0-66.85-.42-11.74-8.25-18.55-19.35-18.09-10,.42-16.81,8.31-16.85,19.65C550.82,1208,550.85,1218.52,550.85,1229Z" transform="translate(-70.07 -1096.09)" style="fill:#0c0c0c"/><path d="M851,1171.13c4.1-1.11,5.26,1.08,6.08,4.79,7.72,34.84,15.66,69.63,23.38,104.47.43,2,3,4.95-.76,6.33-4.23,1.55-7-.3-8-4.8-1.17-5.35-2.4-10.69-3.37-16.08-.4-2.29-1.39-2.93-3.62-2.9q-13.74.15-27.47,0c-2.3,0-3.13.76-3.54,3-1,5.71-2.76,11.33-3.45,17.07s-4.7,3.88-7.49,3.65c-3.69-.29-1.71-3.37-1.34-5.06,7.83-35.5,15.82-71,23.65-106.45C845.78,1171.55,847.52,1170.37,851,1171.13Zm.53,16a4.12,4.12,0,0,0-.88.11q-7.22,33.06-14.4,66.14c-.46,2.14.86,2.11,2.28,2.11,8.16,0,16.32,0,24.48,0,2.21,0,2.87-.64,2.32-3-1.27-5.33-2.25-10.72-3.38-16.08Q856.71,1211.74,851.49,1187.09Z" transform="translate(-70.07 -1096.09)" style="fill:#080808"/><path d="M1022.35,1171.13c3.54-.75,5,.55,5.76,4.15,7.83,35.5,15.89,71,23.82,106.44.39,1.76,2.5,4.65-1.33,4.94-2.89.22-6.89,1.83-7.67-3.57s-2.15-10.74-3.12-16.14c-.5-2.79-1.47-4.18-4.78-4.07-8.49.3-17,.22-25.48,0-3-.07-4.41.6-4.9,3.88-.86,5.74-2.48,11.36-3.51,17.08-.9,5-4.68,2.72-7.15,2.77-3.54.07-1.91-2.69-1.53-4.4,7.87-35.5,15.83-71,23.63-106.48C1016.92,1172,1018.39,1170,1022.35,1171.13Zm.16,14.85a10.87,10.87,0,0,0-1,2c-4.59,21.4-9.1,42.82-13.76,64.2-.66,3,.59,3.3,3,3.27,7.48-.09,15-.15,22.45,0,3.15.07,3.92-.62,3.2-3.92C1031.67,1229.88,1027.18,1208.12,1022.51,1186Z" transform="translate(-70.07 -1096.09)" style="fill:#080808"/><path d="M462.64,1288.08c-16.68,0-27.44-13.86-25.76-32.16.33-3.54,3.38-1.53,5.18-1.91,2-.41,3.55,0,3.52,2.68A32.89,32.89,0,0,0,447,1268c2.64,7.54,8.19,11.93,15.35,12.1,7.81.19,13.87-4,16.83-11.56,3.84-9.84,1.24-20.11-7.4-27.36-7.51-6.31-15.42-12.14-23-18.38-10.64-8.77-14.07-20.26-11.5-33.51,2.39-12.32,12.11-19.56,25.29-19.44s23,8.21,25.37,20.93c.58,3.08.46,6.29.93,9.4.66,4.44-1.46,5.33-5.39,5.11-2.74-.16-3.93-.89-3.72-3.77a28.59,28.59,0,0,0-1.71-12.24c-3.09-8.12-9.55-12.3-17.7-11.44S447,1184.26,445.79,1193c-1.15,8.31,1,15.38,7.26,21.21,6.84,6.37,14.45,11.75,21.86,17.37,12.64,9.58,17.51,21.73,13.39,37.17C485,1281.16,475.46,1288.26,462.64,1288.08Z" transform="translate(-70.07 -1096.09)" style="fill:#080808"/><path d="M895.93,1228.43c0-17.64.11-35.28-.09-52.91,0-3.77,1-4.89,4.76-4.74,7,.29,14,.08,21,.08,14.37,0,23,6.63,26.54,20.61a41.93,41.93,0,0,1-1.06,25c-4,10.89-11.93,16.52-23.43,16.68-4.32.06-8.68.29-13-.07s-6,.75-5.84,5.57c.37,14.46,0,28.95.22,43.42.05,3.65-.79,4.85-4.64,4.87-4.09,0-4.54-1.7-4.52-5.1C896,1264,895.93,1246.23,895.93,1228.43Zm9-26.07c0,2.82-.08,5.65,0,8.48.18,4.78-2,11.07.8,14,3.09,3.15,9.45.92,14.38,1,10.4.12,16.38-4.57,19.13-14.6a33.81,33.81,0,0,0,.16-17.24c-2.56-10.37-8.57-14.89-19.29-14.9-3.83,0-7.67.24-11.47-.07-3.25-.26-3.89,1-3.79,4C905.08,1189.39,904.93,1195.87,904.93,1202.36Z" transform="translate(-70.07 -1096.09)" style="fill:#030303"/><path d="M687,1228.88c0-17.81.09-35.62-.07-53.43,0-3.48.92-4.55,4.46-4.5,13.82.2,27.65.15,41.47,0,3,0,4.46.46,4.44,4,0,3.37-1.08,4.17-4.27,4.11-11.16-.18-22.32,0-33.48-.13-2.8,0-3.64.73-3.61,3.57.15,13,.13,26,0,39,0,2.57.62,3.47,3.32,3.39,6.49-.19,13,0,19.48-.1,2.88-.06,4.53.18,4.56,3.89,0,3.88-1.61,4.31-4.78,4.21-6.32-.18-12.66.08-19-.11-2.81-.09-3.65.74-3.62,3.59q.23,19.47,0,39c0,2.94,1,3.57,3.69,3.53,11.16-.14,22.32,0,33.48-.11,2.76,0,4.3.31,4.17,3.71-.12,3-.44,4.49-4,4.43-14.15-.21-28.31-.18-42.47,0-3.21,0-3.84-1.14-3.82-4C687,1264.83,687,1246.85,687,1228.88Z" transform="translate(-70.07 -1096.09)" style="fill:#030303"/><path d="M341.84,1228.55c0-17.64.11-35.29-.09-52.93-.05-3.8,1.06-4.75,4.77-4.69,13.65.22,27.31.17,41,0,3.07,0,4.51.53,4.5,4s-1.23,4.16-4.4,4.1c-11-.18-22,.07-33-.15-3.19-.06-3.85.92-3.81,3.91.17,12.64.2,25.3,0,37.94-.06,3.42,1.07,4.19,4.23,4.06,6-.23,12,0,18-.07,2.75,0,5.09-.34,5.17,3.91.09,4.57-2.45,4.18-5.39,4.15-5.83-.07-11.68.27-17.48-.12-4-.27-4.57,1.22-4.52,4.76.2,14.81,0,29.62.15,44.43,0,3.52-.72,5-4.65,5s-4.55-1.52-4.52-5C341.92,1264.17,341.84,1246.36,341.84,1228.55Z" transform="translate(-70.07 -1096.09)" style="fill:#080808"/><path d="M635,1233c0-16.49-.14-33,.1-49.45.06-3.86-1.07-4.83-4.74-4.6-5,.33-10-.1-15,.15-3.2.16-3.52-1.39-3.42-3.92.09-2.28-.15-4.22,3.23-4.2q25,.18,50,0c3.55,0,2.89,2.33,3,4.42.14,2.28-.19,3.79-3.15,3.68-5.49-.2-11,.2-16.48-.15-3.76-.24-4.66.86-4.64,4.61.17,32.8.08,65.6.13,98.41,0,3-.08,5-4.1,5-3.86,0-5.11-.91-5-5C635.12,1265.63,635,1249.31,635,1233Z" transform="translate(-70.07 -1096.09)" style="fill:#030303"/><path d="M407.41,1228.46c0-17.45.09-34.91-.07-52.37,0-3.72.68-5.27,4.89-5.26s4.43,1.88,4.43,5.14q-.12,52.88,0,105.74c0,3.65-.53,5.35-4.83,5.3-4.15-.06-4.49-1.91-4.47-5.18C407.46,1264,407.41,1246.25,407.41,1228.46Z" transform="translate(-70.07 -1096.09)" style="fill:#0f1425"/><path d="M509.81,1228.59c0-17.64.1-35.28-.08-52.92,0-3.76,1.09-4.78,4.8-4.78s4.38,1.38,4.37,4.69q-.14,53.42,0,106.83c0,3.58-1.12,4.51-4.55,4.5s-4.68-.74-4.64-4.4C509.9,1264.54,509.81,1246.56,509.81,1228.59Z" transform="translate(-70.07 -1096.09)" style="fill:#080808"/><path d="M977.1,1228.66c0,17.64-.06,35.29.06,52.93,0,3.44-.2,5.49-4.69,5.38-4.13-.1-4.47-1.83-4.46-5.15q.13-52.93,0-105.86c0-3.37.4-5,4.48-5.11,4.52-.12,4.69,2,4.67,5.39C977,1193.71,977.1,1211.19,977.1,1228.66Z" transform="translate(-70.07 -1096.09)" style="fill:#080808"/><path d="M235.61,1300.34c-2.18,2-3.92,1.41-5.49,1.41q-37,.07-74,0c-.83,0-1.67,0-2.5,0-1.08,0-2.25-.24-2.28-1.39,0-1.31,1.27-1.28,2.26-1.29,3.83,0,7.67-.14,11.49,0,2.52.11,3.46-.56,3.45-3.28q-.14-56.94,0-113.88c0-2.89-1.16-3.29-3.59-3-4.63.52-9.27.9-13.92,1.2-1,.07-2.61,1-2.86-.8s1.53-1.38,2.51-1.59a114.71,114.71,0,0,0,43.75-19.71c7.83-5.7,15.1-12.06,18.69-21.53.39-1,.78-2.48,2.3-2.17,2.18.45,1.4,2.37,1.4,3.71q.06,36.21,0,72.42c0,28.14.08,56.27-.09,84.41,0,4,1,5.15,5,5C226.11,1299.65,230.55,1299.24,235.61,1300.34Z" transform="translate(-70.07 -1096.09)" style="fill:#f9f9fa"/></svg>