<svg id="Camada_1" data-name="Camada 1" xmlns="http://www.w3.org/2000/svg" viewBox="0 0 155.54 300.4"><defs><style>.cls-1{fill:#fff;}</style></defs><g id="Camada_2" data-name="Camada 2"><g id="Camada_1-2" data-name="Camada 1-2"><path class="cls-1" d="M36.55,79l-10.2.92L10.82,81.41l-9.54.9C0,82.43,0,82.43,0,81.2c0-2.66,0-2.63,2.64-3.06a140.47,140.47,0,0,0,24.44-6.42A215.93,215.93,0,0,0,81.42,43.84a144.36,144.36,0,0,0,21.3-18.43A65.1,65.1,0,0,0,117.63,1a1.17,1.17,0,0,1,1.31-1h.16a11.65,11.65,0,0,0,2.21,0c.86-.1,1.13.22,1.07.94V294.7c0,2.14,0,2.14,2.1,2.14h30.39c.48,0,.67.23.67.68v.32c-.06,3.09.44,2.49-2.41,2.49H7.15c-2,0-2,0-1.95-2v-.94a.62.62,0,0,1,.63-.58H35.72c.61,0,.93-.15.86-.81a10.65,10.65,0,0,1,0-1.13V79Z" transform="translate(0 0.02)"/></g></g></svg>